<svg width="709.0950195312499px" height="168.83515624999998px" xmlns="http://www.w3.org/2000/svg" viewBox="-104.54750976562497 -9.417578124999991 709.0950195312499 168.83515624999998" style="background: rgba(0, 0, 0, 0);" preserveAspectRatio="xMidYMid"><defs><linearGradient id="editing-gradient-gradient" x1="0.017037086855465844" x2="0.9829629131445341" y1="0.6294095225512604" y2="0.37059047744873963" gradientUnits="objectBoundingBox"><stop offset="0" stop-color="#f0f"></stop><stop offset="1" stop-color="#0ff"></stop></linearGradient></defs><g><g transform="translate(-3.350006103515625, 115.38437271118164)"><path d="M13.70-44.50L13.70-44.50L13.70-44.50Q13.70-47 12.60-51.95L12.60-51.95L12.60-51.95Q11.50-56.90 11.50-59.50L11.50-59.50L11.50-59.50Q11.50-66.10 14.20-69.15L14.20-69.15L14.20-69.15Q16.90-72.20 23.20-72.20L23.20-72.20L23.20-68.50L23.20-68.50Q19.50-68.50 17.75-66.40L17.75-66.40L17.75-66.40Q16-64.30 16-59L16-59L16-59Q16-56.90 17.05-52.45L17.05-52.45L17.05-52.45Q18.10-48 18.10-45.70L18.10-45.70L18.10-45.70Q18.10-34.90 9-31.80L9-31.80L9-31.80Q18.10-28.70 18.10-17.90L18.10-17.90L18.10-17.90Q18.10-15.60 17.05-11.15L17.05-11.15L17.05-11.15Q16-6.70 16-4.60L16-4.60L16-4.60Q16 0.70 17.75 2.80L17.75 2.80L17.75 2.80Q19.50 4.90 23.20 4.90L23.20 4.90L23.20 8.60L23.20 8.60Q16.90 8.60 14.20 5.55L14.20 5.55L14.20 5.55Q11.50 2.50 11.50-4.10L11.50-4.10L11.50-4.10Q11.50-6.70 12.60-11.65L12.60-11.65L12.60-11.65Q13.70-16.60 13.70-19.10L13.70-19.10L13.70-19.10Q13.70-24.30 10.30-26.95L10.30-26.95L10.30-26.95Q6.90-29.60 2-30L2-30L2-33.60L2-33.60Q6.90-34 10.30-36.65L10.30-36.65L10.30-36.65Q13.70-39.30 13.70-44.50ZM91.40 0L91.40-67.30L67.20-67.30L67.20-71.50L120.40-71.50L120.40-67.30L96.20-67.30L96.20 0L91.40 0ZM137.95-9.50L137.95-9.50L137.95-9.50Q128-20.20 128-35.80L128-35.80L128-35.80Q128-51.40 137.95-62.05L137.95-62.05L137.95-62.05Q147.90-72.70 163.10-72.70L163.10-72.70L163.10-72.70Q178.30-72.70 188.30-62.05L188.30-62.05L188.30-62.05Q198.30-51.40 198.30-35.80L198.30-35.80L198.30-35.80Q198.30-20.20 188.30-9.50L188.30-9.50L188.30-9.50Q178.30 1.20 163.10 1.20L163.10 1.20L163.10 1.20Q147.90 1.20 137.95-9.50ZM141.50-58.95L141.50-58.95L141.50-58.95Q133.20-49.60 133.20-35.80L133.20-35.80L133.20-35.80Q133.20-22 141.55-12.60L141.55-12.60L141.55-12.60Q149.90-3.20 163.15-3.20L163.15-3.20L163.15-3.20Q176.40-3.20 184.75-12.60L184.75-12.60L184.75-12.60Q193.10-22 193.10-35.80L193.10-35.80L193.10-35.80Q193.10-49.60 184.75-58.95L184.75-58.95L184.75-58.95Q176.40-68.30 163.10-68.30L163.10-68.30L163.10-68.30Q149.80-68.30 141.50-58.95ZM240.10-36.40L240.10-36.40L240.10-36.40Q231.60-41.40 228.50-41.40L228.50-41.40L228.50-41.40Q225.40-41.40 222.45-38.55L222.45-38.55L222.45-38.55Q219.50-35.70 217.40-32.30L217.40-32.30L214.30-34.10L214.30-34.10Q217.20-38.70 219.40-41.10L219.40-41.10L219.40-41.10Q223.30-45.50 228.60-45.50L228.60-45.50L228.60-45.50Q232-45.50 236.20-43.40L236.20-43.40L236.20-43.40Q239.40-41.80 240.35-41.25L240.35-41.25L240.35-41.25Q241.30-40.70 242.55-40L242.55-40L242.55-40Q243.80-39.30 244.35-39.05L244.35-39.05L244.35-39.05Q244.90-38.80 245.95-38.30L245.95-38.30L245.95-38.30Q247-37.80 247.70-37.60L247.70-37.60L247.70-37.60Q249.60-37 250.70-37L250.70-37L250.70-37Q255.80-37 261.70-46.10L261.70-46.10L264.90-44.20L264.90-44.20Q259.80-36 255.30-34L255.30-34L255.30-34Q253-32.90 251.15-32.90L251.15-32.90L251.15-32.90Q249.30-32.90 248.10-33.15L248.10-33.15L248.10-33.15Q246.90-33.40 246.05-33.60L246.05-33.60L246.05-33.60Q245.20-33.80 243.90-34.45L243.90-34.45L243.90-34.45Q242.60-35.10 242.05-35.35L242.05-35.35L242.05-35.35Q241.50-35.60 240.10-36.40ZM308.00-3.50L308.00-3.50L308.00-3.50Q322.10-3.50 330.65-11.15L330.65-11.15L330.65-11.15Q339.20-18.80 339.20-34.20L339.20-34.20L339.20-34.20Q339.20-49.60 329.55-58.70L329.55-58.70L329.55-58.70Q319.90-67.80 305.70-67.80L305.70-67.80L305.70-67.80Q296.60-67.80 289.90-67.30L289.90-67.30L289.90-4.30L289.90-4.30Q296.40-3.50 308.00-3.50ZM305.70-72.20L305.70-72.20L305.70-72.20Q322.20-72.20 333.30-61.95L333.30-61.95L333.30-61.95Q344.40-51.70 344.40-34.10L344.40-34.10L344.40-34.10Q344.40-25.20 341.55-18.35L341.55-18.35L341.55-18.35Q338.70-11.50 333.70-7.40L333.70-7.40L333.70-7.40Q323.40 0.90 308.00 0.90L308.00 0.90L308.00 0.90Q297.90 0.90 285.10-0.20L285.10-0.20L285.10-71.50L285.10-71.50Q295.30-72.20 305.70-72.20ZM372.35-9.50L372.35-9.50L372.35-9.50Q362.40-20.20 362.40-35.80L362.40-35.80L362.40-35.80Q362.40-51.40 372.35-62.05L372.35-62.05L372.35-62.05Q382.30-72.70 397.50-72.70L397.50-72.70L397.50-72.70Q412.70-72.70 422.70-62.05L422.70-62.05L422.70-62.05Q432.70-51.40 432.70-35.80L432.70-35.80L432.70-35.80Q432.70-20.20 422.70-9.50L422.70-9.50L422.70-9.50Q412.70 1.20 397.50 1.20L397.50 1.20L397.50 1.20Q382.30 1.20 372.35-9.50ZM375.90-58.95L375.90-58.95L375.90-58.95Q367.60-49.60 367.60-35.80L367.60-35.80L367.60-35.80Q367.60-22 375.95-12.60L375.95-12.60L375.95-12.60Q384.30-3.20 397.55-3.20L397.55-3.20L397.55-3.20Q410.80-3.20 419.15-12.60L419.15-12.60L419.15-12.60Q427.50-22 427.50-35.80L427.50-35.80L427.50-35.80Q427.50-49.60 419.15-58.95L419.15-58.95L419.15-58.95Q410.80-68.30 397.50-68.30L397.50-68.30L397.50-68.30Q384.20-68.30 375.90-58.95ZM493.00-19.10L493.00-19.10L493.00-19.10Q493.00-16.60 494.10-11.65L494.10-11.65L494.10-11.65Q495.20-6.70 495.20-4.10L495.20-4.10L495.20-4.10Q495.20 2.50 492.50 5.55L492.50 5.55L492.50 5.55Q489.80 8.60 483.50 8.60L483.50 8.60L483.50 4.90L483.50 4.90Q487.20 4.90 488.95 2.80L488.95 2.80L488.95 2.80Q490.70 0.70 490.70-4.60L490.70-4.60L490.70-4.60Q490.70-6.70 489.65-11.15L489.65-11.15L489.65-11.15Q488.60-15.60 488.60-17.90L488.60-17.90L488.60-17.90Q488.60-28.70 497.70-31.80L497.70-31.80L497.70-31.80Q488.60-34.90 488.60-45.70L488.60-45.70L488.60-45.70Q488.60-48 489.65-52.45L489.65-52.45L489.65-52.45Q490.70-56.90 490.70-59L490.70-59L490.70-59Q490.70-64.30 488.95-66.40L488.95-66.40L488.95-66.40Q487.20-68.50 483.50-68.50L483.50-68.50L483.50-72.20L483.50-72.20Q489.80-72.20 492.50-69.15L492.50-69.15L492.50-69.15Q495.20-66.10 495.20-59.50L495.20-59.50L495.20-59.50Q495.20-56.90 494.10-51.95L494.10-51.95L494.10-51.95Q493.00-47 493.00-44.50L493.00-44.50L493.00-44.50Q493.00-39.30 496.40-36.65L496.40-36.65L496.40-36.65Q499.80-34 504.70-33.60L504.70-33.60L504.70-30L504.70-30Q499.80-29.60 496.40-26.95L496.40-26.95L496.40-26.95Q493.00-24.30 493.00-19.10Z" fill="url(#editing-gradient-gradient)"></path></g></g><style>text {
  font-size: 64px;
  font-family: Arial Black;
  dominant-baseline: central;
  text-anchor: middle;
}</style></svg>